# xmcd
#
# Track frame offsets:
#	182
#	15695
#	36532
#	55455
#	68872
#	84515
#	107055
#	121852
#	133220
#	149052
#	162117
#	178692
#	199087
#	212345
#	225605
#
# Disc length: 3210
#
# Revision: 3
# Processed by: cddbd v1.5.1PL0 Copyright (c) Steve Scherf et al.
# Submitted via: audiograbber 1.83.01
# Normalized: r2:DSETVAR1
#
DISCID=db0c880f
DTITLE=Various Artist - Soul Classics 1973 - (Volume 14)
DYEAR=2000
DGENRE=Soul
TTITLE0=Aretha Franklin - Until You Come Back To Me (That's What I'm Gonna Do)
TTITLE1=Isaac Hayes - Joy (Part 1)
TTITLE2=The Spinners - Could It Be I'm Falling In Love
TTITLE3=Stefan - I've Got To Love Somebody's Baby
TTITLE4=Johnnie Taylor - Cheaper To Keep Her
TTITLE5=The Staple Singers - Be What You Are
TTITLE6=The Soul Children - Love Is A Hurtin' Thing
TTITLE7=The Emotions - Runnin' Back (And Forth)
TTITLE8=The Dramatics - Hey You ! Get Off My Mountain
TTITLE9=Dr John - Right Place, Wrong Time
TTITLE10=Albert King - Breaking Up Somebody's Home
TTITLE11=Johnnie Taylor - I Believe In You (You Believe In Me)
TTITLE12=Mel and Tim - I May Not Be What You Want
TTITLE13=Paul Kelly - Don't burn Me
TTITLE14=Little Milton - What Is It
EXTD=
EXTT0=
EXTT1=
EXTT2=
EXTT3=
EXTT4=
EXTT5=
EXTT6=
EXTT7=
EXTT8=
EXTT9=
EXTT10=
EXTT11=
EXTT12=
EXTT13=
EXTT14=
PLAYORDER=
